<svg xmlns="http://www.w3.org/2000/svg" width="14.143" height="14.143" viewBox="0 0 14.143 14.143">
  <g id="Group_4704" data-name="Group 4704" transform="translate(-3223.5 -1522.945)">
    <g id="sale" transform="translate(3223.5 1522.945)">
      <g id="Group_4702" data-name="Group 4702" transform="translate(0 0)">
        <g id="Group_4701" data-name="Group 4701">
          <path id="Path_28" data-name="Path 28" d="M52.568,67.946h4.514a1.612,1.612,0,0,1,1.148.475l6.384,6.384a1.623,1.623,0,0,1,0,2.3L60.1,81.614a1.625,1.625,0,0,1-2.3,0L51.42,75.23a1.612,1.612,0,0,1-.475-1.148V69.569A1.625,1.625,0,0,1,52.568,67.946Zm2.164,5.41a1.623,1.623,0,1,0-1.623-1.623A1.625,1.625,0,0,0,54.732,73.356Z" transform="translate(-50.945 -67.946)" fill="#e61002"/>
        </g>
      </g>
    </g>
  </g>
</svg>
