<svg xmlns="http://www.w3.org/2000/svg" width="11.849" height="10.629" viewBox="0 0 11.849 10.629">
  <g id="warning" transform="translate(-0.002 -26.315)">
    <g id="Group_30" data-name="Group 30" transform="translate(0 26.315)">
      <g id="Group_29" data-name="Group 29">
        <path id="Path_11" data-name="Path 11" d="M11.659,34.855,7.13,27.012a1.393,1.393,0,0,0-2.413,0L.189,34.855A1.393,1.393,0,0,0,1.4,36.945h9.057a1.393,1.393,0,0,0,1.207-2.09Zm-.6,1.046a.692.692,0,0,1-.6.35H1.4A.7.7,0,0,1,.79,35.2l4.529-7.844a.7.7,0,0,1,1.211,0L11.058,35.2a.692.692,0,0,1,0,.7Z" transform="translate(0 -26.315)" fill="#d7410b"/>
      </g>
    </g>
    <g id="Group_32" data-name="Group 32" transform="translate(5.577 29.779)">
      <g id="Group_31" data-name="Group 31">
        <rect id="Rectangle_44" data-name="Rectangle 44" width="0.694" height="3.471" fill="#d7410b"/>
      </g>
    </g>
    <g id="Group_34" data-name="Group 34" transform="translate(5.461 33.944)">
      <g id="Group_33" data-name="Group 33">
        <path id="Path_12" data-name="Path 12" d="M236.465,355.99a.463.463,0,1,0,.463.463A.463.463,0,0,0,236.465,355.99Z" transform="translate(-236.002 -355.99)" fill="#d7410b"/>
      </g>
    </g>
  </g>
</svg>
